<svg width="65" height="64" viewBox="0 0 65 64" fill="none" xmlns="http://www.w3.org/2000/svg">
<path d="M7.68908 58.2453C7.49219 58.0984 7.2953 57.9547 7.10153 57.8078C5.65453 56.4827 5.21074 54.8138 5.22012 52.8886C5.25762 43.7284 5.23574 34.5714 5.23887 25.4112C5.23887 23.0453 5.79517 22.4984 8.18913 22.4984C23.4874 22.4984 38.7887 22.4984 54.0869 22.5015C57.8216 22.5015 59.4999 24.1986 59.4999 27.9426C59.4999 36.3715 59.4999 44.8035 59.4999 53.2324C59.4999 56.8671 57.7935 58.5704 54.1619 58.5704C39.7982 58.5704 25.4375 58.5641 11.0738 58.5766C9.92991 58.5766 8.79543 58.5485 7.68596 58.2391L7.68908 58.2453ZM32.2194 26.1519C24.9844 26.1519 17.7462 26.18 10.5112 26.1237C9.28923 26.1144 8.93607 26.4456 8.94545 27.6832C8.99857 36.1152 8.97045 44.5504 8.97357 52.9824C8.97357 54.8825 9.07671 54.9857 11.0519 54.9888C25.2625 54.9919 39.4763 54.9888 53.6869 54.9888C55.6933 54.9888 55.8058 54.8763 55.8058 52.8574C55.809 44.6316 55.809 36.4059 55.8058 28.1802C55.8058 26.2519 55.7215 26.1581 53.7713 26.155C46.5863 26.1456 39.4044 26.1519 32.2194 26.1519Z" fill="#7505E0"/>
<path d="M40.2262 8.26579C45.683 7.05631 51.1428 5.85621 56.5964 4.6311C57.5653 4.41234 58.4685 4.3342 59.1217 5.24053C59.7811 6.15623 59.4373 7.00319 58.856 7.81263C52.1304 9.39402 45.4048 10.9848 38.673 12.5537C34.0663 13.6288 29.4597 14.6976 24.8405 15.7102C23.7904 15.9415 23.2654 16.4009 23.4091 17.4947C23.5591 18.6417 23.0622 19.048 21.909 19.0355C16.7617 18.9761 11.6143 18.9605 6.467 18.9792C5.50129 18.9824 5.17313 18.6292 5.21376 17.6979C5.26689 16.504 5.20126 15.307 5.23564 14.1101C5.28877 12.3162 5.92945 11.6692 7.71398 11.663C11.9769 11.6442 16.2897 11.2692 20.4901 11.7755C24.1029 12.2099 27.322 11.2161 30.6629 10.5004C33.86 9.81594 37.0353 9.01586 40.2169 8.26892L40.2262 8.26579Z" fill="#33CCCC"/>
<path d="M32.4317 28.8146C38.7792 28.8146 45.1266 28.8114 51.4741 28.8146C53.5492 28.8146 54.018 29.2959 54.0243 31.3992C54.0305 34.5713 54.0368 37.7466 54.0243 40.9188C54.0149 42.7345 53.5117 43.2596 51.7178 43.2627C38.8667 43.2721 26.0187 43.269 13.1675 43.2627C11.2924 43.2627 10.7611 42.722 10.7517 40.8438C10.7361 37.6716 10.7423 34.4963 10.7517 31.3242C10.758 29.3427 11.2768 28.8208 13.2363 28.8208C19.6369 28.8146 26.0343 28.8208 32.4349 28.8208L32.4317 28.8146ZM32.363 32.4899C26.85 32.4899 21.337 32.5086 15.824 32.4711C14.7864 32.4649 14.3176 32.7212 14.3864 33.8588C14.4739 35.362 14.4552 36.8747 14.3864 38.381C14.3458 39.353 14.7239 39.628 15.6553 39.6249C26.8375 39.603 38.0197 39.603 49.1989 39.6249C50.1177 39.6249 50.5084 39.3842 50.4552 38.3967C50.3802 36.9434 50.3521 35.4777 50.4615 34.0306C50.5552 32.7837 50.1114 32.4461 48.8988 32.4586C43.3858 32.5149 37.8729 32.4836 32.3599 32.4836L32.363 32.4899Z" fill="#7505E0"/>
<path d="M41.4607 51.3541C37.9791 51.3541 34.4976 51.3322 31.016 51.3666C29.7315 51.3791 28.8158 50.9541 28.8002 49.5727C28.7877 48.1819 29.7221 47.7413 30.991 47.7444C37.9541 47.7538 44.9172 47.7444 51.8803 47.7444C53.1523 47.7444 54.0368 48.2257 54.0055 49.6352C53.9743 50.9666 53.1117 51.3666 51.9053 51.3603C48.4238 51.3447 44.9422 51.3541 41.4607 51.3541Z" fill="#7505E0"/>
<path d="M16.1898 49.5695C16.1367 50.2289 16.296 50.9165 15.8429 51.5197C15.3085 52.2322 14.6021 52.4823 13.7896 52.2041C12.5832 51.7884 12.4551 50.7321 12.4551 49.657C12.4551 48.5413 12.4988 47.4099 13.7864 46.9568C14.6021 46.6692 15.3022 46.9224 15.846 47.6256C16.3085 48.2256 16.1273 48.9163 16.1898 49.5726V49.5695Z" fill="#7505E0"/>
<path d="M23.4526 49.5663C23.3901 50.1007 23.437 50.7101 23.2276 51.2164C22.8744 52.0727 22.1181 52.4728 21.1993 52.2477C19.6585 51.8727 19.7085 50.5913 19.7023 49.385C19.696 48.2318 19.8867 47.1598 21.2649 46.8941C22.1994 46.7129 22.9151 47.1285 23.2526 48.0005C23.4307 48.4662 23.3901 49.0162 23.4526 49.5694V49.5663Z" fill="#7505E0"/>
<path d="M39.0668 37.8933C37.9229 37.9652 37.0447 37.4745 36.901 36.1463C36.7791 34.993 37.776 34.1492 39.1418 34.143C40.5294 34.1336 41.5201 34.9368 41.4326 36.0963C41.3295 37.4464 40.4294 37.912 39.0668 37.8964V37.8933Z" fill="#7505E0"/>
<path d="M46.4235 37.8903C45.2109 37.8903 44.239 37.5653 44.1671 36.1214C44.1077 34.8994 45.0078 34.115 46.4204 34.1431C47.6674 34.1681 48.5518 34.6775 48.63 36.0339C48.6956 37.1715 47.8205 37.8716 46.4235 37.8903Z" fill="#7505E0"/>
</svg>
