<svg width="65" height="64" viewBox="0 0 65 64" fill="none" xmlns="http://www.w3.org/2000/svg">
<path d="M33.1164 58.1063C26.1705 58.1063 19.2247 58.1124 12.2757 58.1063C8.78135 58.1032 6.60617 55.9863 6.6031 52.5042C6.58776 38.5603 6.59083 24.6165 6.60617 10.6726C6.60924 7.22733 8.82429 5.01227 12.2665 5.0092C26.2104 4.99693 40.1542 4.99693 54.0981 5.0092C57.5495 5.01227 59.7646 7.21813 59.7707 10.6573C59.7861 24.6012 59.7922 38.545 59.7707 52.4888C59.7677 55.9648 57.5771 58.0971 54.1073 58.1001C47.1093 58.1093 40.1113 58.1001 33.1133 58.1001L33.1164 58.1063ZM10.1957 31.5255C10.1957 38.2658 10.1957 45.0092 10.1957 51.7495C10.1957 54.0443 10.7111 54.5873 12.9384 54.5904C26.4742 54.5965 40.007 54.5965 53.5428 54.5904C55.5922 54.5904 56.1751 54.0014 56.1751 51.9458C56.1782 38.3609 56.1782 24.776 56.1751 11.1911C56.1751 9.16628 55.6505 8.61405 53.6624 8.61405C40.0775 8.60485 26.4926 8.60791 12.9077 8.61405C10.6743 8.61405 10.1987 9.10185 10.1987 11.3016C10.1957 18.0419 10.1987 24.7852 10.1987 31.5255H10.1957Z" fill="#7505E0"/>
<path d="M49.1522 21.1436C49.1522 23.3403 49.186 25.5339 49.1338 27.7305C49.1154 28.5435 49.3209 29.0037 50.1186 29.3565C51.8796 30.1419 52.6711 31.6145 52.6711 33.5259C52.6711 35.7225 52.6712 37.9161 52.6834 40.1128C52.6957 42.1468 51.8643 43.6869 49.9683 44.4969C49.2504 44.8037 49.1184 45.2393 49.1399 45.9112C49.1737 46.9819 49.1645 48.0557 49.1399 49.1264C49.1154 50.2524 48.5846 50.9917 47.4004 51.0378C46.2008 51.0869 45.6578 50.326 45.5075 49.2491C45.4308 48.6969 45.443 48.1263 45.4829 47.5679C45.5995 46.0094 45.575 44.6963 43.7526 43.8802C42.461 43.3004 41.9977 41.837 42.01 40.3521C42.0253 38.0542 42.0223 35.7563 42.0131 33.4584C42.0069 31.59 42.8138 30.1726 44.4858 29.3995C45.3633 28.9945 45.4891 28.4361 45.4829 27.6078C45.4553 23.42 45.4707 19.2354 45.4737 15.0476C45.4737 14.5905 45.44 14.1149 45.5412 13.6762C45.7744 12.6791 46.3634 12.0073 47.474 12.0993C48.5632 12.1883 49.1154 12.8847 49.1277 13.9401C49.1553 16.3392 49.1369 18.7383 49.1369 21.1375H49.143L49.1522 21.1436ZM49.1031 36.9559C49.1031 35.9895 49.0571 35.02 49.1154 34.0566C49.189 32.8203 48.5908 32.4797 47.4556 32.4951C46.3726 32.5073 45.5167 32.5932 45.5412 33.9922C45.575 35.8729 45.5964 37.7566 45.5381 39.6372C45.4921 41.0761 46.2653 41.2602 47.4618 41.2786C48.7626 41.297 49.1952 40.7663 49.1154 39.5483C49.0602 38.6862 49.1031 37.821 49.1031 36.9559Z" fill="#7505E0"/>
<path d="M20.8906 21.1498C20.8906 23.3465 20.9243 25.5431 20.8752 27.7367C20.8568 28.5497 21.0624 29.013 21.8539 29.3842C23.5259 30.1665 24.3512 31.5655 24.3481 33.4339C24.3451 35.6796 24.3267 37.9284 24.3543 40.1742C24.3788 42.1683 23.5413 43.644 21.7373 44.4601C21.047 44.773 20.8599 45.1688 20.8844 45.8591C20.9212 46.9298 20.9366 48.0067 20.8691 49.0743C20.7985 50.2095 20.2954 51.0685 18.9946 51.0347C17.7122 51.0041 17.2274 50.1941 17.2213 49.0099C17.2182 48.5006 17.1998 47.9883 17.2244 47.479C17.298 45.991 17.3655 44.681 15.5155 43.9416C14.2669 43.4416 13.7177 42.0211 13.6962 40.6098C13.6594 38.1585 13.6441 35.7072 13.6993 33.2559C13.7392 31.4796 14.5767 30.0837 16.2242 29.3781C17.12 28.9946 17.2366 28.4423 17.2305 27.6109C17.2029 23.2698 17.2152 18.9286 17.2213 14.5874C17.2213 12.8909 17.8073 12.0932 19.013 12.084C20.1972 12.0748 20.8691 12.9338 20.8844 14.5598C20.9028 16.7565 20.8906 18.9531 20.8906 21.1467V21.1498ZM20.8261 36.962H20.8169C20.8169 35.8944 20.8384 34.8237 20.8108 33.756C20.7771 32.3785 19.7646 32.5288 18.835 32.5043C17.8901 32.4797 17.2428 32.6945 17.2612 33.8297C17.2919 35.6612 17.3195 37.4959 17.2489 39.3244C17.1998 40.6129 17.4821 41.2786 18.9884 41.3001C20.5807 41.3247 20.9212 40.5914 20.8323 39.2507C20.7832 38.4899 20.8231 37.726 20.8231 36.962H20.8261Z" fill="#7505E0"/>
<path d="M27.8914 26.2178C27.8914 24.5826 27.873 22.9474 27.8914 21.3152C27.916 19.4652 28.4958 18.6461 30.263 18.2964C31.1159 18.1276 31.3644 17.7717 31.3367 16.9833C31.303 16.0138 31.2999 15.0413 31.3582 14.0718C31.4257 12.9152 31.9626 12.0715 33.2358 12.1052C34.4078 12.1359 34.9293 12.9244 35.0122 14.0258C35.052 14.535 35.0674 15.0505 35.0306 15.5567C34.9262 17.0354 34.8404 18.3485 36.9419 18.5755C37.9421 18.6829 38.4575 19.7383 38.4605 20.809C38.4789 24.4353 38.5035 28.0647 38.4575 31.691C38.436 33.2833 37.4328 34.216 35.8098 34.2589C34.0734 34.308 32.3369 34.3111 30.6004 34.2712C28.91 34.2313 27.9436 33.2741 27.9006 31.5806C27.8515 29.795 27.8914 28.0064 27.8884 26.2178H27.8914Z" fill="#33CCCC"/>
<path d="M35.0342 44.1472C35.0342 45.7272 35.0526 47.3103 35.028 48.8903C35.0096 50.099 34.5525 51.0348 33.1842 51.0348C31.8067 51.0348 31.3526 50.0745 31.3465 48.8811C31.3219 45.5677 31.3588 42.2512 31.3312 38.9378C31.3189 37.3885 32.4295 37.7904 33.2701 37.7628C34.1077 37.7352 35.0863 37.5388 35.0495 38.947C35.0035 40.6804 35.0372 42.4138 35.0372 44.1472H35.0342Z" fill="#33CCCC"/>
</svg>
