<svg width="32" height="32" viewBox="0 0 32 32" fill="none" xmlns="http://www.w3.org/2000/svg">
<path d="M0 8C0 3.58172 3.58172 0 8 0H24C28.4183 0 32 3.58172 32 8V24C32 28.4183 28.4183 32 24 32H8C3.58172 32 0 28.4183 0 24V8Z" fill="#7505E0"/>
<g opacity="0.5">
<path d="M10.0002 18.2077C12.6528 16.6529 16.0128 16.6529 18.6655 18.2077C18.7495 18.2569 18.8542 18.315 18.9732 18.3811C19.5003 18.6738 20.3102 19.1234 20.8647 19.6576C21.211 19.9913 21.5523 20.4419 21.6146 21.003C21.6814 21.6043 21.4127 22.1592 20.8992 22.6409C20.0241 23.4615 18.9675 24.1249 17.5988 24.1249H11.0668C9.6982 24.1249 8.6416 23.4614 7.76653 22.6409C7.25293 22.1592 6.9843 21.6043 7.05108 21.003C7.11339 20.4419 7.45468 19.9913 7.80092 19.6576C8.35541 19.1234 9.16534 18.6738 9.69254 18.3811C9.81155 18.315 9.91618 18.2569 10.0002 18.2077Z" fill="white"/>
<path d="M10.3745 11.8333C10.3745 9.64721 12.1467 7.875 14.3328 7.875C16.519 7.875 18.2912 9.64721 18.2912 11.8333C18.2912 14.0195 16.519 15.7917 14.3328 15.7917C12.1467 15.7917 10.3745 14.0195 10.3745 11.8333Z" fill="white"/>
</g>
<path d="M21.8324 7.875C22.3398 7.875 22.6626 8.25423 22.8253 8.58377L22.8256 8.58454L23.2342 9.40832L23.9611 9.53008C24.3262 9.59145 24.7636 9.7945 24.9132 10.2641C25.0626 10.7328 24.8249 11.1514 24.5631 11.4139L24.5622 11.4148L23.9956 11.986L24.1568 12.6889C24.2385 13.0463 24.2638 13.6138 23.8117 13.9461C23.3571 14.2802 22.8221 14.0816 22.5073 13.8941L21.8327 13.4915L21.1584 13.8939C20.8417 14.0833 20.3081 14.2788 19.8544 13.945C19.4036 13.6133 19.4262 13.0478 19.5087 12.6883L19.6698 11.986L19.1017 11.4132C18.8415 11.1509 18.6046 10.7329 18.7528 10.2652C18.9016 9.79512 19.3389 9.5915 19.7046 9.53003L20.4285 9.40877L20.8378 8.58337L20.8384 8.58221C21.0023 8.25342 21.3257 7.875 21.8324 7.875Z" fill="white"/>
</svg>
