<svg width="32" height="32" viewBox="0 0 32 32" fill="none" xmlns="http://www.w3.org/2000/svg">
<mask id="path-1-inside-1_1061_1025" fill="#e1dae8">
<path d="M0 8C0 3.58172 3.58172 0 8 0H24C28.4183 0 32 3.58172 32 8V24C32 28.4183 28.4183 32 24 32H8C3.58172 32 0 28.4183 0 24V8Z"/>
</mask>
<path d="M0 8C0 3.58172 3.58172 0 8 0H24C28.4183 0 32 3.58172 32 8V24C32 28.4183 28.4183 32 24 32H8C3.58172 32 0 28.4183 0 24V8Z" fill="#7505E0"/>
<path d="M8 1H24V-1H8V1ZM31 8V24H33V8H31ZM24 31H8V33H24V31ZM1 24V8H-1V24H1ZM8 31C4.13401 31 1 27.866 1 24H-1C-1 28.9706 3.02944 33 8 33V31ZM31 24C31 27.866 27.866 31 24 31V33C28.9706 33 33 28.9706 33 24H31ZM24 1C27.866 1 31 4.13401 31 8H33C33 3.02944 28.9706 -1 24 -1V1ZM8 -1C3.02944 -1 -1 3.02944 -1 8H1C1 4.13401 4.13401 1 8 1V-1Z" fill="#EDEEF1" mask="url(#path-1-inside-1_1061_1025)"/>
<path opacity="0.4" d="M18.5001 7.04163C18.7923 7.04163 19.0456 7.24417 19.1098 7.52928L19.5587 9.52226C19.8865 10.9773 21.0227 12.1135 22.4777 12.4413L24.4707 12.8902C24.7559 12.9545 24.9584 13.2077 24.9584 13.5C24.9584 13.7922 24.7559 14.0455 24.4707 14.1097L22.4777 14.5586C21.0227 14.8864 19.8865 16.0226 19.5587 17.4776L19.1098 19.4706C19.0456 19.7558 18.7923 19.9583 18.5001 19.9583C18.2078 19.9583 17.9546 19.7558 17.8903 19.4706L17.4414 17.4776C17.1137 16.0226 15.9774 14.8864 14.5224 14.5586L12.5294 14.1097C12.2443 14.0455 12.0417 13.7922 12.0417 13.5C12.0417 13.2077 12.2443 12.9545 12.5294 12.8902L14.5224 12.4413C15.9774 12.1135 17.1137 10.9773 17.4414 9.52226L17.8903 7.52928C17.9546 7.24417 18.2078 7.04163 18.5001 7.04163Z" fill="#dde0e9"/>
<path d="M11.8334 15.375C12.1257 15.375 12.3789 15.5775 12.4431 15.8627L12.7638 17.2862C12.9828 18.2582 13.7418 19.0173 14.7138 19.2362L16.1374 19.5569C16.4226 19.6212 16.6251 19.8744 16.6251 20.1667C16.6251 20.4589 16.4226 20.7122 16.1374 20.7764L14.7138 21.0971C13.7418 21.316 12.9828 22.0751 12.7638 23.0471L12.4431 24.4707C12.3789 24.7558 12.1257 24.9583 11.8334 24.9583C11.5412 24.9583 11.2879 24.7558 11.2237 24.4707L10.903 23.0471C10.6841 22.0751 9.92498 21.316 8.95296 21.0971L7.5294 20.7764C7.24429 20.7122 7.04175 20.4589 7.04175 20.1667C7.04175 19.8744 7.24429 19.6212 7.5294 19.5569L8.95296 19.2362C9.92498 19.0173 10.6841 18.2582 10.903 17.2862L11.2237 15.8627C11.2879 15.5775 11.5412 15.375 11.8334 15.375Z" fill="#93eefc"/>
</svg>
