<svg width="65" height="64" viewBox="0 0 65 64" fill="none" xmlns="http://www.w3.org/2000/svg">
<path d="M22.774 9.33002C24.6052 9.22001 26.4365 9.11001 28.271 9C28.6334 9.08736 28.9925 9.20707 29.3581 9.25884C37.437 10.3718 43.332 14.5779 46.9493 21.8577C49.392 26.7756 49.8288 31.9814 48.3632 37.2617C47.9134 38.8826 48.4214 39.1026 49.8094 39.0056C51.0421 38.9182 52.2878 38.9861 53.5269 38.9861C55.5351 38.9861 56.5499 37.9702 56.5715 35.9384C56.5877 34.1944 57.2509 33.2821 58.5354 33.3823C60.0561 33.5021 60.4087 34.5503 60.3958 35.8963C60.3667 39.2353 60.399 42.5775 60.3893 45.9197C60.3764 49.7505 58.0889 52.0315 54.2549 52.038C48.5961 52.0444 42.9405 52.0477 37.2817 52.0315C36.3532 52.0315 35.4893 52.1803 34.6093 52.4974C30.9564 53.8142 27.2163 54.3481 23.3467 53.6557C14.7274 52.1156 8.69331 47.3239 5.70052 39.1091C2.69478 30.8716 4.35133 23.3104 9.96484 16.6421C13.32 12.6593 17.7849 10.5045 22.774 9.33002ZM26.553 50.1161C36.7123 50.2552 45.1698 42.0275 45.3154 31.8552C45.4642 21.4888 37.217 12.9893 26.9089 12.8825C16.8111 12.779 8.26299 21.0844 8.08504 31.1725C7.90386 41.4419 16.2222 49.9737 26.553 50.1161ZM41.5817 48.3366C45.4674 48.3366 48.8841 48.3366 52.2975 48.3366C56.4938 48.3366 56.6718 48.1198 56.5974 43.9849C56.5812 43.0046 56.29 42.6713 55.3129 42.6907C52.6275 42.7393 49.9388 42.7069 47.2502 42.7102C46.7746 42.7102 46.2439 42.6228 45.9366 43.1178C44.8074 44.9264 43.4647 46.5636 41.5784 48.3398L41.5817 48.3366Z" fill="#7505E0"/>
<path d="M32.3283 31.564C32.3089 34.7186 29.8338 37.1549 26.6727 37.1322C23.5796 37.1096 21.0139 34.5148 21.0624 31.4605C21.111 28.3901 23.722 25.8308 26.7827 25.847C29.8726 25.8664 32.3509 28.4192 32.3315 31.564H32.3283Z" fill="#33CCCC"/>
<path d="M31.4127 19.3082C31.4321 21.9548 29.4132 24.0546 26.7989 24.0999C24.2688 24.1452 22.0363 21.9904 21.9846 19.4538C21.9328 16.901 24.0714 14.7171 26.6533 14.6847C29.3064 14.6524 31.3933 16.681 31.4159 19.3049L31.4127 19.3082Z" fill="#33CCCC"/>
<path d="M26.8119 38.9797C29.4649 39.0088 31.4806 41.1118 31.4159 43.7779C31.3544 46.3953 29.1802 48.4563 26.566 48.3819C24.1167 48.3107 21.9813 46.0847 21.9878 43.6096C21.9943 41.0504 24.1847 38.9473 26.8151 38.9797H26.8119Z" fill="#33CCCC"/>
<path d="M34.2015 31.3828C34.2533 28.843 36.3822 26.7496 38.88 26.7852C41.449 26.8208 43.6393 29.0306 43.607 31.5575C43.5746 34.1588 41.4101 36.2425 38.7894 36.2004C36.1525 36.1583 34.1465 34.0521 34.2015 31.386V31.3828Z" fill="#33CCCC"/>
<path d="M19.3089 31.5704C19.296 34.1653 17.1282 36.2521 14.5043 36.2004C11.9127 36.1486 9.92936 34.1362 9.91318 31.5381C9.897 28.9174 12.0195 26.769 14.6111 26.782C17.1865 26.7949 19.3219 28.9724 19.3057 31.5704H19.3089Z" fill="#33CCCC"/>
</svg>
