<svg width="24" height="24" viewBox="0 0 24 24" fill="none" xmlns="http://www.w3.org/2000/svg">
<path opacity="0.4" d="M12 22C17.5228 22 22 17.5228 22 12C22 6.47715 17.5228 2 12 2C6.47715 2 2 6.47715 2 12C2 17.5228 6.47715 22 12 22Z" fill="white"/>
<path d="M12 22C17.5228 22 22 17.5228 22 12C22 6.47715 17.5228 2 12 2C6.47715 2 2 6.47715 2 12C2 17.5228 6.47715 22 12 22Z" stroke="white" stroke-width="1.5"/>
<path d="M9.5 11.1998V12.8002C9.5 14.3195 9.5 15.0791 9.95576 15.3862C10.4115 15.6932 11.0348 15.3535 12.2815 14.6741L13.7497 13.8738C15.2499 13.0562 16 12.6474 16 12C16 11.3526 15.2499 10.9438 13.7497 10.1262L12.2815 9.32594C11.0348 8.6465 10.4115 8.30678 9.95576 8.61382C9.5 8.92086 9.5 9.6805 9.5 11.1998Z" fill="white"/>
</svg>
