<svg width="65" height="64" viewBox="0 0 65 64" fill="none" xmlns="http://www.w3.org/2000/svg">
<path d="M33.0619 58.2631C25.2777 58.2631 17.4935 58.2631 9.70922 58.2631C9.24807 58.2631 8.78692 58.2631 8.32884 58.2385C7.2313 58.1801 6.55187 57.5345 6.54265 56.5046C6.53035 55.4009 7.20056 54.6968 8.39033 54.6938C11.769 54.6815 15.1508 54.6753 18.5295 54.6723C19.9622 54.6723 20.6795 53.958 20.6816 52.5294C20.6816 49.4059 20.6662 46.2824 20.6908 43.1588C20.7092 40.9514 21.2442 40.4319 23.4146 40.4196C24.6936 40.4104 25.9756 40.3981 27.2545 40.4226C29.0376 40.4565 29.6709 41.0437 29.6924 42.833C29.7293 46.2117 29.7632 49.5934 29.6771 52.9721C29.6433 54.2972 29.9845 54.7553 31.3741 54.703C34.0549 54.6015 34.058 54.6846 34.058 52.0222C34.058 44.9051 34.0549 37.7849 34.058 30.6678C34.058 28.5495 34.5653 28.0392 36.6651 28.03C37.944 28.0238 39.226 28.0177 40.5049 28.03C42.4049 28.0515 42.9675 28.6079 42.9705 30.5079C42.9767 37.9324 43.0259 45.3601 42.9336 52.7846C42.9121 54.3771 43.3794 54.9243 44.8981 54.6815C45.2486 54.6261 45.6175 54.6323 45.9711 54.6815C47.084 54.829 47.33 54.3064 47.3238 53.2734C47.2808 47.6935 47.3023 42.1105 47.3054 36.5275C47.3054 33.7544 47.7542 33.3025 50.4842 33.3056C51.6094 33.3056 52.7377 33.2933 53.8629 33.3086C55.643 33.3332 56.2578 33.9266 56.2609 35.7128C56.2732 41.5509 56.2824 47.3891 56.2486 53.2273C56.2425 54.2111 56.4054 54.7952 57.5737 54.6876C58.8126 54.5739 59.7042 55.0904 59.8179 56.4277C59.9132 57.5345 58.994 58.2569 57.4907 58.26C49.3498 58.2754 41.2059 58.2661 33.065 58.2661L33.0619 58.2631ZM39.3397 43.0973C39.3397 39.7248 39.3397 36.3522 39.3397 32.9797C39.3397 32.331 39.5057 31.6423 38.4082 31.6731C37.3537 31.7038 37.6212 32.4232 37.6181 32.9582C37.5997 39.7525 37.6058 46.5498 37.6058 53.3441C37.6058 54.0143 37.5013 54.7153 38.5589 54.6815C39.5857 54.6507 39.3274 53.916 39.3305 53.3657C39.349 49.9439 39.3397 46.5191 39.3367 43.0943L39.3397 43.0973ZM50.97 45.7105C50.97 48.2622 50.9608 50.814 50.9761 53.3626C50.9792 53.9313 50.7609 54.6569 51.7662 54.6723C52.7316 54.6876 52.6363 54.0174 52.6363 53.4117C52.6393 48.3606 52.6424 43.3095 52.627 38.2583C52.627 37.6927 52.8269 36.9917 51.8154 36.9671C50.7947 36.9425 50.9761 37.625 50.9761 38.2091C50.9669 40.7086 50.973 43.208 50.973 45.7105H50.97ZM26.034 49.4121C26.034 47.9333 26.0217 46.4545 26.0401 44.9758C26.0494 44.3517 25.8495 44.0565 25.1639 44.0565C24.4415 44.0565 24.3246 44.4316 24.3246 45.0157C24.3339 47.921 24.3339 50.8262 24.3246 53.7346C24.3246 54.3587 24.5245 54.6815 25.2039 54.6753C25.8987 54.6661 26.0524 54.2941 26.0432 53.6946C26.0248 52.2681 26.0371 50.8386 26.0371 49.4121H26.034Z" fill="#7505E0"/>
<path d="M51.7999 28.0361C52.6699 28.0361 53.543 28.0084 54.41 28.0453C55.4645 28.0914 56.1562 28.6141 56.2331 29.7239C56.3099 30.8368 55.6797 31.5654 54.6529 31.6269C52.7683 31.7437 50.8653 31.7499 48.9776 31.6331C47.9569 31.5716 47.2867 30.7999 47.3605 29.7331C47.4312 28.6848 48.1076 28.073 49.1898 28.0361C50.0598 28.0084 50.9298 28.03 51.7999 28.033V28.0361Z" fill="#7505E0"/>
<path d="M38.4418 15.6864C37.5718 15.6864 36.7017 15.7294 35.8348 15.6741C34.7741 15.6095 34.1008 15.0346 34.0762 13.934C34.0486 12.7504 34.7495 12.1201 35.8747 12.0833C37.6117 12.0248 39.3518 12.0402 41.0888 12.0802C42.2232 12.1078 42.9734 12.7319 42.9334 13.8879C42.8965 14.9947 42.2109 15.6587 41.0458 15.6833C40.1757 15.7017 39.3057 15.6864 38.4387 15.6833L38.4418 15.6864Z" fill="#7505E0"/>
<path d="M38.3898 20.9803C37.5197 20.9803 36.6497 21.0172 35.7827 20.9711C34.6883 20.9158 34.098 20.2702 34.0765 19.1972C34.055 18.1765 34.6575 17.4817 35.629 17.4356C37.5659 17.3403 39.515 17.3341 41.4488 17.4448C42.4264 17.5002 42.989 18.2718 42.9429 19.2618C42.8998 20.2456 42.3034 20.8881 41.3012 20.9588C40.3358 21.0295 39.3613 20.9742 38.3898 20.9742V20.9803Z" fill="#7505E0"/>
<path d="M25.1392 38.7717C24.3215 38.7717 23.5037 38.8025 22.689 38.7656C21.573 38.7164 20.8321 38.1784 20.786 36.9948C20.7399 35.7927 21.4838 35.1809 22.5783 35.1348C24.3614 35.0579 26.1538 35.0641 27.94 35.144C28.9975 35.1901 29.6493 35.8972 29.637 36.9579C29.6216 38.0154 28.9545 38.6641 27.9 38.7471C26.9869 38.8209 26.0615 38.7625 25.1423 38.7625C25.1423 38.7656 25.1423 38.7686 25.1423 38.7748L25.1392 38.7717Z" fill="#7505E0"/>
<path d="M51.7727 26.2685C50.8534 26.2685 49.9342 26.2993 49.0181 26.2624C47.982 26.2193 47.401 25.5676 47.3579 24.6022C47.3149 23.643 47.8406 22.8375 48.849 22.7914C50.8319 22.7023 52.8241 22.6992 54.804 22.813C55.7908 22.8714 56.2827 23.6492 56.2243 24.6576C56.1659 25.6106 55.6002 26.1763 54.6779 26.2501C53.7157 26.3269 52.7411 26.2655 51.7727 26.2685Z" fill="#7505E0"/>
<path d="M38.4725 26.2744C37.5564 26.2744 36.6341 26.3175 35.721 26.2621C34.7126 26.2007 34.1254 25.595 34.0793 24.5928C34.0363 23.5936 34.5743 22.8404 35.5642 22.7943C37.5441 22.699 39.5363 22.6959 41.5131 22.8066C42.5122 22.8619 43.001 23.692 42.9365 24.6604C42.875 25.5612 42.3278 26.1914 41.3747 26.2498C40.4094 26.3082 39.4379 26.2621 38.4725 26.2621C38.4725 26.2652 38.4725 26.2714 38.4725 26.2744Z" fill="#7505E0"/>
<path d="M27.9338 9.6915C27.8938 10.7276 28.0537 11.9634 27.6294 13.1563C27.0853 14.6873 26.0923 15.7941 24.592 16.4212C23.1778 17.0115 21.7697 17.6356 20.3217 18.1367C19.341 18.4749 18.9844 19.016 19.009 20.0582C19.0735 22.613 19.0459 25.1739 19.0182 27.7318C18.9813 31.2088 16.8354 33.3486 13.346 33.4285C9.58303 33.5146 7.4064 32.1711 6.687 29.3212C5.97068 26.4836 7.76917 23.4984 10.6437 22.8712C11.5322 22.6775 12.4698 22.6622 13.386 22.6406C15.3812 22.5945 15.3843 22.613 15.3874 20.5593C15.3935 18.0537 15.3997 15.5451 15.3874 13.0395C15.3751 10.5185 16.4911 8.71693 18.8091 7.73007C20.8782 6.84773 22.9687 6.00843 25.0746 5.2214C26.7901 4.58193 27.8539 5.35361 27.9246 7.20129C27.9553 7.9668 27.9307 8.73538 27.9307 9.68843L27.9338 9.6915ZM24.2384 10.829C24.0294 10.5769 24.512 9.59004 23.7619 9.79602C22.2124 10.2172 20.5246 10.5462 19.3933 11.8466C18.8214 12.5045 18.7784 13.5129 19.1873 14.1739C19.6577 14.9333 20.3494 14.1094 20.9243 13.9433C21.5607 13.7589 22.1602 13.4545 22.7812 13.2178C23.8234 12.8212 24.3153 12.0772 24.2384 10.8321V10.829Z" fill="#33CCCC"/>
</svg>
