<svg width="65" height="64" viewBox="0 0 65 64" fill="none" xmlns="http://www.w3.org/2000/svg">
<path d="M39.2445 40.0908C39.2445 36.2244 39.2323 32.3579 39.2476 28.4915C39.2628 24.8877 41.3304 22.8079 44.925 22.7651C46.4001 22.7468 47.8783 22.7132 49.3504 22.7835C52.1509 22.9148 54.3559 24.9121 54.417 27.7035C54.5422 33.6528 54.4812 39.6052 54.4751 45.5545C54.4751 46.7547 53.8276 47.5457 52.609 47.4877C51.3905 47.4297 50.8957 46.5562 50.8988 45.3804C50.9018 39.9869 50.9018 34.5965 50.8988 29.2031C50.8988 26.7568 50.5414 26.4056 48.0554 26.3872C47.0904 26.3811 46.1222 26.3781 45.1571 26.3872C43.34 26.4056 42.8086 26.9217 42.8055 28.7602C42.7964 36.5939 42.8055 44.4275 42.7994 52.2612C42.7964 55.0801 41.4984 56.9767 39.1101 57.7951C38.5146 57.9998 37.916 58.0089 37.3052 58.0089C33.7442 58.0089 30.1831 58.015 26.6221 58.0089C23.1588 57.9998 21.0668 56.0391 20.9721 52.6094C20.9416 51.5649 20.7644 51.0365 19.5642 50.78C17.7042 50.3829 16.6017 48.9903 16.446 47.0815C16.0367 42.0668 15.6977 37.0489 15.3648 32.0281C15.2854 30.8278 15.7283 29.8689 17.1118 29.8444C18.4708 29.82 18.9136 30.7118 18.99 31.9365C19.1458 34.4225 19.3718 36.9024 19.5031 39.3884C19.5459 40.1763 19.8268 40.4634 20.5995 40.4451C22.0227 40.4084 23.4489 40.3931 24.8721 40.4512C25.7761 40.4878 25.9624 40.0725 26.0052 39.2723C26.1335 36.8352 26.3564 34.4041 26.5121 31.9701C26.5885 30.7698 26.958 29.8475 28.3476 29.8353C29.5295 29.8231 30.1281 30.6141 30.0365 32.1991C29.7403 37.1711 29.4257 42.1462 29.0562 47.1121C28.9188 48.9384 27.5291 50.4318 25.7547 50.8838C25.1622 51.0335 24.3926 50.8563 24.4659 51.9283C24.5331 52.93 24.5453 53.9165 25.6723 54.3166C26.1365 54.4815 26.6679 54.509 27.1657 54.509C30.2686 54.5242 33.3715 54.5212 36.4745 54.5151C38.6642 54.512 39.2139 54.002 39.2292 51.8428C39.2537 47.9275 39.2353 44.0091 39.2353 40.0908H39.2445ZM22.7587 43.9481C19.4329 43.9847 19.8818 43.5999 19.894 45.8416C19.9001 47.0846 20.456 47.5885 21.6715 47.4969C22.2762 47.4511 22.887 47.4938 23.4917 47.4908C25.373 47.4846 25.5776 47.1884 25.6662 45.0933C25.7425 43.2884 24.4354 44.1344 23.6688 43.9603C23.3787 43.8931 23.0641 43.9511 22.7587 43.9481Z" fill="#7505E0"/>
<path d="M22.7863 28.1097C21.0058 28.1097 19.2253 28.1494 17.4448 28.1005C14.6106 28.0242 12.5553 26.3322 12.2224 23.5164C11.8345 20.2333 11.7612 16.8952 12.3567 13.6335C13.3279 8.33162 18.1411 4.79197 23.5895 5.15846C28.7937 5.50662 33.0693 9.8617 33.3136 15.1849C33.4297 17.7228 33.4114 20.273 33.3381 22.8109C33.2495 25.9138 31.0689 28.0242 27.969 28.1036C26.2405 28.1463 24.5119 28.1127 22.7802 28.1127L22.7863 28.1097ZM22.6825 21.3846C23.8461 21.4671 24.9639 21.3419 25.2906 19.937C25.4556 19.2254 25.083 18.578 24.4416 18.3001C23.2872 17.7992 22.0564 17.79 20.9234 18.3734C20.2851 18.7032 20.0469 19.3629 20.2393 20.0775C20.5783 21.3419 21.5891 21.4396 22.6825 21.3816V21.3846ZM22.6947 15.2552C24.0415 15.2613 24.466 15.133 24.915 14.5588C25.5136 13.7923 25.4281 13.0471 24.7776 12.3721C24.0446 11.6147 21.5739 11.5689 20.7737 12.3019C20.0774 12.9371 19.9766 13.6976 20.508 14.4855C21.0364 15.2704 21.8731 15.2643 22.6947 15.2552Z" fill="#33CCCC"/>
<path d="M24.4903 32.9443C24.5484 34.1812 24.0994 35.0485 22.7465 35.1188C21.5493 35.1798 20.914 34.34 20.9415 32.8435C20.969 31.4386 21.5951 30.7209 22.7801 30.7454C23.9253 30.7667 24.4964 31.4997 24.4903 32.9473V32.9443Z" fill="#7505E0"/>
<path d="M50.8834 52.3192C50.8651 51.1128 51.2927 50.2211 52.6181 50.1111C53.7695 50.0164 54.478 50.9174 54.4994 52.3253C54.5177 53.55 54.0535 54.4112 52.7647 54.5487C51.6683 54.6678 50.8834 53.6844 50.8804 52.3192H50.8834Z" fill="#7505E0"/>
<path d="M22.7588 43.9481C23.0611 43.9481 23.3787 43.8931 23.6689 43.9603C24.4354 44.1343 25.7426 43.2914 25.6662 45.0933C25.5777 47.1884 25.373 47.4846 23.4917 47.4908C22.884 47.4908 22.2732 47.4511 21.6715 47.4969C20.456 47.5915 19.9032 47.0846 19.8941 45.8416C19.8818 43.5999 19.4329 43.9878 22.7588 43.9481Z" fill="#33CCCC"/>
<path d="M22.6825 21.3847C21.5861 21.4427 20.5783 21.345 20.2393 20.0806C20.0469 19.366 20.2881 18.7032 20.9234 18.3764C22.0564 17.7931 23.2842 17.8023 24.4416 18.3031C25.083 18.5811 25.4586 19.2255 25.2906 19.9401C24.9639 21.345 23.8461 21.4702 22.6825 21.3877V21.3847Z" fill="#7505E0"/>
</svg>
