<svg width="114" height="43" viewBox="0 0 114 43" fill="none" xmlns="http://www.w3.org/2000/svg">
<g clip-path="url(#clip0_2248_15825)">
<g clip-path="url(#clip1_2248_15825)">
<path d="M77.824 29.4664H72.1994V21.3991C72.1994 20.78 72.134 20.3493 72.0034 20.1094C71.8728 19.8695 71.6368 19.7496 71.2965 19.7496C70.6652 19.7496 70.3489 20.3047 70.3489 21.414V29.4653H64.7243V21.398C64.7243 20.7788 64.6567 20.3482 64.5215 20.1083C64.3863 19.8684 64.148 19.7484 63.8077 19.7484C63.1855 19.7484 62.875 20.3036 62.875 21.4128V29.4641H57.2504V20.2579C57.2504 18.5786 57.8164 17.1518 58.9496 15.9775C60.0828 14.8032 61.4554 14.216 63.0698 14.216C64.6842 14.216 66.2276 14.9163 67.5509 16.3156C69.0244 14.9163 70.499 14.216 71.9725 14.216C73.847 14.216 75.3514 14.8957 76.4846 16.2551C77.3771 17.3152 77.8228 18.8597 77.8228 20.8885V29.4653L77.824 29.4664Z" fill="#18243E"/>
<path d="M80.4902 35V22.5255C80.4902 20.2362 81.0917 18.3719 82.2948 16.9325C82.9868 16.1032 83.8668 15.4429 84.9347 14.9528C86.0025 14.4627 87.0979 14.2183 88.2208 14.2183C90.4562 14.2183 92.341 14.9677 93.8752 16.4676C95.4094 17.9675 96.1759 19.8067 96.1759 21.9851C96.1759 24.1636 95.414 25.9343 93.8901 27.473C92.3662 29.0129 90.5616 29.7817 88.4763 29.7817C88.1348 29.7817 87.6341 29.7463 86.973 29.6766V23.4988C87.4336 23.8689 87.8954 24.054 88.356 24.054C88.938 24.054 89.4364 23.8392 89.8523 23.4097C90.2683 22.9801 90.4768 22.4706 90.4768 21.8801C90.4768 21.2895 90.2614 20.788 89.8294 20.3733C89.3986 19.9586 88.8819 19.7507 88.2803 19.7507C86.8367 19.7507 86.1148 20.7457 86.1148 22.7345V29.4664C86.006 30.0216 85.4125 32.7336 82.9353 34.1855C82.0232 34.7201 81.1341 34.9212 80.4902 34.9989V35Z" fill="#18243E"/>
<path d="M105.756 14.2034C107.881 14.2034 109.703 14.9654 111.222 16.4904C112.742 18.0143 113.501 19.8421 113.501 21.9703C113.501 24.0985 112.731 25.9685 111.192 27.4879C109.654 29.0072 107.796 29.7669 105.621 29.7669C103.445 29.7669 101.585 29.0049 100.041 27.4799C98.4961 25.956 97.725 24.1191 97.725 21.9692C97.725 19.8192 98.4972 17.9389 100.041 16.4436C101.584 14.9494 103.489 14.2023 105.756 14.2023V14.2034ZM105.604 19.7359C105.003 19.7359 104.492 19.9529 104.07 20.3881C103.649 20.8234 103.439 21.3557 103.439 21.9851C103.439 22.6146 103.652 23.1344 104.078 23.5742C104.505 24.014 105.013 24.2344 105.604 24.2344C106.196 24.2344 106.719 24.0151 107.146 23.5742C107.572 23.1344 107.785 22.6043 107.785 21.9851C107.785 21.366 107.574 20.8234 107.154 20.3881C106.732 19.9529 106.216 19.7359 105.604 19.7359Z" fill="#18243E"/>
<path d="M34.9032 23.0715C34.5652 22.2856 34.6442 20.2682 34.6442 19.079H35.9321C36.6161 19.079 37.1707 18.5261 37.1707 17.8441V15.9638C37.1707 15.2818 36.6161 14.7289 35.9321 14.7289H34.6442V10.2349C34.6442 9.5529 34.0897 9 33.4056 9H32.992C32.646 9 32.3171 9.14394 32.0823 9.3964L29.3484 12.3448C29.1365 12.5733 29.0196 12.8726 29.0196 13.1833V21.2803C29.0196 23.4097 29.4504 25.1186 30.3132 26.4083C30.9949 27.4182 31.9001 28.2178 33.0275 28.8073C34.155 29.3967 35.3557 29.6915 36.6298 29.6915H37.2761V23.7969C36.6906 23.7764 35.1484 23.6393 34.9032 23.0704V23.0715Z" fill="#18243E"/>
<path d="M24.8226 23.316C24.4846 22.5301 24.5637 20.5127 24.5637 19.3235V10.4793C24.5637 9.79736 24.0091 9.24446 23.3251 9.24446H22.9115C22.5654 9.24446 22.2366 9.3884 22.0017 9.64086L19.2679 12.5893C19.0559 12.8178 18.939 13.117 18.939 13.4278V21.5248C18.939 23.6541 19.3699 25.3631 20.2326 26.6528C20.9144 27.6627 21.8195 28.4623 22.947 29.0518C24.0744 29.6412 25.2752 29.9359 26.5493 29.9359H27.1955V24.0414C26.61 24.0208 25.0678 23.8837 24.8226 23.3148V23.316Z" fill="#18243E"/>
<path d="M55.1342 21.8504C55.0929 11.5703 39.508 11.8685 39.5092 22.0011C39.4611 31.188 52.8907 32.7073 55.015 23.6336H50.2325C49.8372 23.6336 49.4557 23.8072 49.2185 24.1225C48.0326 25.7012 45.6139 24.9678 45.3423 22.9013H55.0734C55.1135 22.4215 55.1342 22.072 55.1342 21.8515V21.8504ZM45.4707 20.2453C46.0069 18.2234 49.1853 17.867 49.4786 20.2453H45.4707Z" fill="#18243E"/>
<path d="M14.8841 14.4262H12.9948C12.3852 14.4262 11.8627 14.7929 11.6336 15.3161C11.5545 15.4966 11.5098 15.6965 11.5098 15.9067V21.2712C11.5098 22.1268 11.2222 22.9664 10.6585 23.6119C10.1624 24.1808 9.45888 24.6194 8.51362 24.7451C6.6185 24.9964 5.12784 24.0802 4.90671 22.4238C4.68557 20.7663 5.81875 19.3326 7.71386 19.0813C8.69923 18.9511 9.88626 19.2561 10.5955 19.8135V15.0808C10.5955 14.9699 10.5233 14.8694 10.4156 14.8386C9.66856 14.6204 8.64767 14.4022 7.81813 14.4319C3.84801 14.5735 0.605461 17.7733 0.502341 21.7338C0.392346 25.9674 3.80676 29.5784 8.0301 29.4413C9.80949 29.383 10.9369 28.7593 11.763 28.0533C12.0312 28.3412 12.4872 28.7547 13.1552 29.0632C14.0225 29.463 15.0537 29.4927 15.5453 29.463C15.6793 29.455 16.1227 29.3453 16.1227 29.2105V15.6611C16.1227 14.9791 15.5682 14.4262 14.8841 14.4262Z" fill="#18243E"/>
<path d="M8.25238 19.9438C8.03583 19.986 7.32888 20.154 6.76974 20.8062C6.25644 21.4048 6.1705 22.0571 6.15217 22.2844C5.83708 21.7315 5.8325 21.0633 6.15217 20.5595C6.5635 19.9106 7.44919 19.6296 8.25352 19.9438H8.25238Z" fill="#18243E"/>
</g>
</g>
<defs>
<clipPath id="clip0_2248_15825">
<path d="M0.5 21.5C0.5 9.62588 10.1259 0 22 0H92C103.874 0 113.5 9.62588 113.5 21.5C113.5 33.3741 103.874 43 92 43H22C10.1259 43 0.5 33.3741 0.5 21.5Z" fill="white"/>
</clipPath>
<clipPath id="clip1_2248_15825">
<rect width="113" height="26" fill="white" transform="translate(0.5 9)"/>
</clipPath>
</defs>
</svg>
